{
  "asset": {
    "generator": "Khronos glTF Blender I/O v1.2.48",
    "version": "2.0"
  },
  "scene": 0,
  "scenes": [
    {
      "name": "Scene",
      "nodes": [6]
    }
  ],
  "nodes": [
    {
      "mesh": 0,
      "name": "Cylinder.001",
      "rotation": [0, -0.7071068286895752, 0, 0.7071068286895752],
      "scale": [10.472065925598145, 1.309008240699768, 10.472065925598145],
      "translation": [0, -1.1194685697555542, 0]
    },
    {
      "mesh": 1,
      "name": "Cylinder.002",
      "rotation": [
        0.7071068286895752, 0, 0.7071068286895752, 2.6528512719892205e-8
      ],
      "scale": [10.472065925598145, 1.309008240699768, 10.472065925598145],
      "translation": [0, 1.1194685697555542, 0]
    },
    {
      "children": [0, 1],
      "mesh": 2,
      "name": "Cylinder",
      "rotation": [-0.7071070075035095, 0, 0, 0.7071065902709961],
      "scale": [0.09549212455749512, 0.7639369964599609, 0.09549212455749512],
      "translation": [-2.1115472316741943, -0.45380353927612305, 0]
    },
    {
      "mesh": 3,
      "name": "Cylinder.004",
      "rotation": [0, -0.7071068286895752, 0, 0.7071068286895752],
      "scale": [10.472065925598145, 1.309008240699768, 10.472065925598145],
      "translation": [0, -1.1194685697555542, 0]
    },
    {
      "mesh": 4,
      "name": "Cylinder.005",
      "rotation": [
        0.7071068286895752, 0, 0.7071068286895752, 2.6528512719892205e-8
      ],
      "scale": [10.472065925598145, 1.309008240699768, 10.472065925598145],
      "translation": [0, 1.1194685697555542, 0]
    },
    {
      "children": [3, 4],
      "mesh": 5,
      "name": "Cylinder.003",
      "rotation": [
        0, 0.7071070671081543, 0.7071065902709961, 1.1520229747929989e-7
      ],
      "scale": [0.09549212455749512, 0.7639369964599609, 0.09549212455749512],
      "translation": [2.108452796936035, -0.45380353927612305, 0]
    },
    {
      "children": [2, 5],
      "mesh": 6,
      "name": "Circle.002",
      "rotation": [0, 0, 0, -1]
    }
  ],
  "materials": [
    {
      "doubleSided": true,
      "emissiveFactor": [0, 0, 0],
      "name": "wheels",
      "pbrMetallicRoughness": {
        "baseColorFactor": [
          0.800000011920929, 0.800000011920929, 0.800000011920929, 1
        ],
        "metallicFactor": 0
      }
    },
    {
      "doubleSided": true,
      "emissiveFactor": [0, 0, 0],
      "name": "wheel_connector",
      "pbrMetallicRoughness": {
        "baseColorFactor": [
          0.800000011920929, 0.800000011920929, 0.800000011920929, 1
        ],
        "metallicFactor": 1,
        "roughnessFactor": 0.2706422209739685
      }
    },
    {
      "doubleSided": true,
      "emissiveFactor": [0, 0, 0],
      "name": "screw",
      "pbrMetallicRoughness": {
        "baseColorFactor": [
          0.3259871304035187, 0.3259871304035187, 0.3259871304035187, 1
        ],
        "metallicFactor": 1,
        "roughnessFactor": 0.21559631824493408
      }
    },
    {
      "doubleSided": true,
      "emissiveFactor": [0, 0, 0],
      "name": "grip_layer",
      "pbrMetallicRoughness": {
        "baseColorFactor": [
          0.021090427413582802, 0.021090427413582802, 0.021090427413582802, 1
        ],
        "metallicFactor": 0,
        "roughnessFactor": 1
      }
    },
    {
      "doubleSided": true,
      "alphaMode": "BLEND",
      "emissiveFactor": [0,0,0],
      "name": "skateboard_wood",
      "pbrMetallicRoughness": {
        "baseColorFactor": [
          1,1,1, 0.2],
        "metallicFactor": 1
      }
    }
  ],
  "meshes": [
    {
      "name": "Cylinder.001",
      "primitives": [
        {
          "attributes": {
            "POSITION": 0,
            "NORMAL": 1,
            "TEXCOORD_0": 2
          },
          "indices": 3,
          "material": 0
        }
      ]
    },
    {
      "name": "Cylinder.012",
      "primitives": [
        {
          "attributes": {
            "POSITION": 4,
            "NORMAL": 5,
            "TEXCOORD_0": 6
          },
          "indices": 3,
          "material": 0
        }
      ]
    },
    {
      "name": "Cylinder",
      "primitives": [
        {
          "attributes": {
            "POSITION": 7,
            "NORMAL": 8,
            "TEXCOORD_0": 9
          },
          "indices": 10,
          "material": 1
        },
        {
          "attributes": {
            "POSITION": 11,
            "NORMAL": 12,
            "TEXCOORD_0": 13
          },
          "indices": 14,
          "material": 2
        }
      ]
    },
    {
      "name": "Cylinder.014",
      "primitives": [
        {
          "attributes": {
            "POSITION": 15,
            "NORMAL": 16,
            "TEXCOORD_0": 17
          },
          "indices": 3,
          "material": 0
        }
      ]
    },
    {
      "name": "Cylinder.015",
      "primitives": [
        {
          "attributes": {
            "POSITION": 18,
            "NORMAL": 19,
            "TEXCOORD_0": 20
          },
          "indices": 3,
          "material": 0
        }
      ]
    },
    {
      "name": "Cylinder.013",
      "primitives": [
        {
          "attributes": {
            "POSITION": 21,
            "NORMAL": 22,
            "TEXCOORD_0": 23
          },
          "indices": 10,
          "material": 1
        },
        {
          "attributes": {
            "POSITION": 24,
            "NORMAL": 25,
            "TEXCOORD_0": 26
          },
          "indices": 14,
          "material": 2
        }
      ]
    },
    {
      "name": "Circle.002",
      "primitives": [
        {
          "attributes": {
            "POSITION": 27,
            "NORMAL": 28,
            "TEXCOORD_0": 29
          },
          "indices": 30,
          "material": 3
        },
        {
          "attributes": {
            "POSITION": 31,
            "NORMAL": 32,
            "TEXCOORD_0": 33
          },
          "indices": 34,
          "material": 4
        }
      ]
    }
  ],
  "accessors": [
    {
      "bufferView": 0,
      "componentType": 5126,
      "count": 1033,
      "max": [0.30000001192092896, 0.18000000715255737, 0.30000001192092896],
      "min": [-0.30000001192092896, -0.18000000715255737, -0.30000001192092896],
      "type": "VEC3"
    },
    {
      "bufferView": 1,
      "componentType": 5126,
      "count": 1033,
      "type": "VEC3"
    },
    {
      "bufferView": 2,
      "componentType": 5126,
      "count": 1033,
      "type": "VEC2"
    },
    {
      "bufferView": 3,
      "componentType": 5123,
      "count": 4212,
      "type": "SCALAR"
    },
    {
      "bufferView": 4,
      "componentType": 5126,
      "count": 1033,
      "max": [0.30000001192092896, 0.18000000715255737, 0.30000001192092896],
      "min": [-0.30000001192092896, -0.18000000715255737, -0.30000001192092896],
      "type": "VEC3"
    },
    {
      "bufferView": 5,
      "componentType": 5126,
      "count": 1033,
      "type": "VEC3"
    },
    {
      "bufferView": 6,
      "componentType": 5126,
      "count": 1033,
      "type": "VEC2"
    },
    {
      "bufferView": 7,
      "componentType": 5126,
      "count": 1471,
      "max": [4.71269416809082, 1.028879165649414, 4.320655345916748],
      "min": [-2.3764359951019287, -1.0288790464401245, -1.000001311302185],
      "type": "VEC3"
    },
    {
      "bufferView": 8,
      "componentType": 5126,
      "count": 1471,
      "type": "VEC3"
    },
    {
      "bufferView": 9,
      "componentType": 5126,
      "count": 1471,
      "type": "VEC2"
    },
    {
      "bufferView": 10,
      "componentType": 5123,
      "count": 7464,
      "type": "SCALAR"
    },
    {
      "bufferView": 11,
      "componentType": 5126,
      "count": 2990,
      "max": [4.197105407714844, 1.2293835878372192, 4.547811031341553],
      "min": [-1.9655766487121582, -1.2293834686279297, -0.7975848317146301],
      "type": "VEC3"
    },
    {
      "bufferView": 12,
      "componentType": 5126,
      "count": 2990,
      "type": "VEC3"
    },
    {
      "bufferView": 13,
      "componentType": 5126,
      "count": 2990,
      "type": "VEC2"
    },
    {
      "bufferView": 14,
      "componentType": 5123,
      "count": 11760,
      "type": "SCALAR"
    },
    {
      "bufferView": 15,
      "componentType": 5126,
      "count": 1033,
      "max": [0.30000001192092896, 0.18000000715255737, 0.30000001192092896],
      "min": [-0.30000001192092896, -0.18000000715255737, -0.30000001192092896],
      "type": "VEC3"
    },
    {
      "bufferView": 16,
      "componentType": 5126,
      "count": 1033,
      "type": "VEC3"
    },
    {
      "bufferView": 17,
      "componentType": 5126,
      "count": 1033,
      "type": "VEC2"
    },
    {
      "bufferView": 18,
      "componentType": 5126,
      "count": 1033,
      "max": [0.30000001192092896, 0.18000000715255737, 0.30000001192092896],
      "min": [-0.30000001192092896, -0.18000000715255737, -0.30000001192092896],
      "type": "VEC3"
    },
    {
      "bufferView": 19,
      "componentType": 5126,
      "count": 1033,
      "type": "VEC3"
    },
    {
      "bufferView": 20,
      "componentType": 5126,
      "count": 1033,
      "type": "VEC2"
    },
    {
      "bufferView": 21,
      "componentType": 5126,
      "count": 1471,
      "max": [4.71269416809082, 1.028879165649414, 4.320655345916748],
      "min": [-2.3764359951019287, -1.0288790464401245, -1.000001311302185],
      "type": "VEC3"
    },
    {
      "bufferView": 22,
      "componentType": 5126,
      "count": 1471,
      "type": "VEC3"
    },
    {
      "bufferView": 23,
      "componentType": 5126,
      "count": 1471,
      "type": "VEC2"
    },
    {
      "bufferView": 24,
      "componentType": 5126,
      "count": 2990,
      "max": [4.197105407714844, 1.2293835878372192, 4.547811031341553],
      "min": [-1.9655766487121582, -1.2293834686279297, -0.7975848317146301],
      "type": "VEC3"
    },
    {
      "bufferView": 25,
      "componentType": 5126,
      "count": 2990,
      "type": "VEC3"
    },
    {
      "bufferView": 26,
      "componentType": 5126,
      "count": 2990,
      "type": "VEC2"
    },
    {
      "bufferView": 27,
      "componentType": 5126,
      "count": 2150,
      "max": [3.9910285472869873, 0.34178927540779114, 0.9976212382316589],
      "min": [-3.9910285472869873, -0.03129316121339798, -0.9976232051849365],
      "type": "VEC3"
    },
    {
      "bufferView": 28,
      "componentType": 5126,
      "count": 2150,
      "type": "VEC3"
    },
    {
      "bufferView": 29,
      "componentType": 5126,
      "count": 2150,
      "type": "VEC2"
    },
    {
      "bufferView": 30,
      "componentType": 5123,
      "count": 11220,
      "type": "SCALAR"
    },
    {
      "bufferView": 31,
      "componentType": 5126,
      "count": 3745,
      "max": [3.9929609298706055, 0.34111717343330383, 0.9993811845779419],
      "min": [-3.992959499359131, -0.10129103064537048, -0.9993817806243896],
      "type": "VEC3"
    },
    {
      "bufferView": 32,
      "componentType": 5126,
      "count": 3745,
      "type": "VEC3"
    },
    {
      "bufferView": 33,
      "componentType": 5126,
      "count": 3745,
      "type": "VEC2"
    },
    {
      "bufferView": 34,
      "componentType": 5123,
      "count": 18132,
      "type": "SCALAR"
    }
  ],
  "bufferViews": [
    {
      "buffer": 0,
      "byteLength": 12396,
      "byteOffset": 0
    },
    {
      "buffer": 0,
      "byteLength": 12396,
      "byteOffset": 12396
    },
    {
      "buffer": 0,
      "byteLength": 8264,
      "byteOffset": 24792
    },
    {
      "buffer": 0,
      "byteLength": 8424,
      "byteOffset": 33056
    },
    {
      "buffer": 0,
      "byteLength": 12396,
      "byteOffset": 41480
    },
    {
      "buffer": 0,
      "byteLength": 12396,
      "byteOffset": 53876
    },
    {
      "buffer": 0,
      "byteLength": 8264,
      "byteOffset": 66272
    },
    {
      "buffer": 0,
      "byteLength": 17652,
      "byteOffset": 74536
    },
    {
      "buffer": 0,
      "byteLength": 17652,
      "byteOffset": 92188
    },
    {
      "buffer": 0,
      "byteLength": 11768,
      "byteOffset": 109840
    },
    {
      "buffer": 0,
      "byteLength": 14928,
      "byteOffset": 121608
    },
    {
      "buffer": 0,
      "byteLength": 35880,
      "byteOffset": 136536
    },
    {
      "buffer": 0,
      "byteLength": 35880,
      "byteOffset": 172416
    },
    {
      "buffer": 0,
      "byteLength": 23920,
      "byteOffset": 208296
    },
    {
      "buffer": 0,
      "byteLength": 23520,
      "byteOffset": 232216
    },
    {
      "buffer": 0,
      "byteLength": 12396,
      "byteOffset": 255736
    },
    {
      "buffer": 0,
      "byteLength": 12396,
      "byteOffset": 268132
    },
    {
      "buffer": 0,
      "byteLength": 8264,
      "byteOffset": 280528
    },
    {
      "buffer": 0,
      "byteLength": 12396,
      "byteOffset": 288792
    },
    {
      "buffer": 0,
      "byteLength": 12396,
      "byteOffset": 301188
    },
    {
      "buffer": 0,
      "byteLength": 8264,
      "byteOffset": 313584
    },
    {
      "buffer": 0,
      "byteLength": 17652,
      "byteOffset": 321848
    },
    {
      "buffer": 0,
      "byteLength": 17652,
      "byteOffset": 339500
    },
    {
      "buffer": 0,
      "byteLength": 11768,
      "byteOffset": 357152
    },
    {
      "buffer": 0,
      "byteLength": 35880,
      "byteOffset": 368920
    },
    {
      "buffer": 0,
      "byteLength": 35880,
      "byteOffset": 404800
    },
    {
      "buffer": 0,
      "byteLength": 23920,
      "byteOffset": 440680
    },
    {
      "buffer": 0,
      "byteLength": 25800,
      "byteOffset": 464600
    },
    {
      "buffer": 0,
      "byteLength": 25800,
      "byteOffset": 490400
    },
    {
      "buffer": 0,
      "byteLength": 17200,
      "byteOffset": 516200
    },
    {
      "buffer": 0,
      "byteLength": 22440,
      "byteOffset": 533400
    },
    {
      "buffer": 0,
      "byteLength": 44940,
      "byteOffset": 555840
    },
    {
      "buffer": 0,
      "byteLength": 44940,
      "byteOffset": 600780
    },
    {
      "buffer": 0,
      "byteLength": 29960,
      "byteOffset": 645720
    },
    {
      "buffer": 0,
      "byteLength": 36264,
      "byteOffset": 675680
    }
  ],
  "buffers": [
    {
      "uri": "skateboard_data.bin",
      "byteLength": 711944
    }
  ]
}
